<svg width="729" height="581" viewBox="0 0 729 581" fill="none" xmlns="http://www.w3.org/2000/svg">
<path d="M377.989 1.21486C195.488 130.511 46.2886 402.953 0.280525 572.984C-1.77196 580.569 7.98765 583.899 11.7029 576.98C175.375 272.177 497.028 116.324 724.602 12.8992C731.203 9.89904 729.025 0 721.779 0H381.841C380.461 0 379.117 0.41595 377.989 1.21486Z" fill="black"/>
<path d="M283.059 11.7514C199.796 89.7111 182.499 108.083 117.891 199.095C114.78 203.478 108.046 202.653 106.111 197.634L33.447 9.19106C31.7405 4.76559 34.9692 0 39.6963 0H278.497C284.606 0 287.527 7.56805 283.059 11.7514Z" fill="black"/>
<path d="M458.242 224.712C416.506 239.626 352.241 283.148 315.335 315.209C312.082 318.036 312.45 323.167 315.968 325.655C418.772 398.383 472.36 434.424 560.09 577.604C563.973 583.942 573.832 580.329 572.612 572.989C547.774 423.536 520.994 347.764 466.279 228.258C464.872 225.186 461.415 223.578 458.242 224.712Z" fill="black"/>
</svg>
